<svg width="334" height="57" viewBox="0 0 334 57" fill="none" xmlns="http://www.w3.org/2000/svg">
<g id="Profile banner - 1" clip-path="url(#clip0)">
<rect width="334" height="57" fill="white"/>
<g id="COMMERCE">
<path d="M90.0625 34.1719C89.6406 37.7812 88.3047 40.5703 86.0547 42.5391C83.8203 44.4922 80.8438 45.4687 77.125 45.4687C73.0938 45.4687 69.8594 44.0234 67.4219 41.1328C65 38.2422 63.7891 34.375 63.7891 29.5312V26.25C63.7891 23.0781 64.3516 20.2891 65.4766 17.8828C66.6172 15.4766 68.2266 13.6328 70.3047 12.3516C72.3828 11.0547 74.7891 10.4062 77.5234 10.4062C81.1484 10.4062 84.0547 11.4219 86.2422 13.4531C88.4297 15.4687 89.7031 18.2656 90.0625 21.8437H85.5391C85.1484 19.125 84.2969 17.1562 82.9844 15.9375C81.6875 14.7187 79.8672 14.1094 77.5234 14.1094C74.6484 14.1094 72.3906 15.1719 70.75 17.2969C69.125 19.4219 68.3125 22.4453 68.3125 26.3672V29.6719C68.3125 33.375 69.0859 36.3203 70.6328 38.5078C72.1797 40.6953 74.3438 41.7891 77.125 41.7891C79.625 41.7891 81.5391 41.2266 82.8672 40.1016C84.2109 38.9609 85.1016 36.9844 85.5391 34.1719H90.0625Z" fill="black"/>
<path d="M122.477 29.0391C122.477 32.3828 121.914 35.3047 120.789 37.8047C119.664 40.2891 118.07 42.1875 116.008 43.5C113.945 44.8125 111.539 45.4687 108.789 45.4687C106.102 45.4687 103.719 44.8125 101.641 43.5C99.5625 42.1719 97.9453 40.2891 96.7891 37.8516C95.6484 35.3984 95.0625 32.5625 95.0312 29.3437V26.8828C95.0312 23.6016 95.6016 20.7031 96.7422 18.1875C97.8828 15.6719 99.4922 13.75 101.57 12.4219C103.664 11.0781 106.055 10.4062 108.742 10.4062C111.477 10.4062 113.883 11.0703 115.961 12.3984C118.055 13.7109 119.664 15.625 120.789 18.1406C121.914 20.6406 122.477 23.5547 122.477 26.8828V29.0391ZM118 26.8359C118 22.7891 117.188 19.6875 115.562 17.5312C113.938 15.3594 111.664 14.2734 108.742 14.2734C105.898 14.2734 103.656 15.3594 102.016 17.5312C100.391 19.6875 99.5547 22.6875 99.5078 26.5312V29.0391C99.5078 32.9609 100.328 36.0469 101.969 38.2969C103.625 40.5312 105.898 41.6484 108.789 41.6484C111.695 41.6484 113.945 40.5937 115.539 38.4844C117.133 36.3594 117.953 33.3203 118 29.3672V26.8359Z" fill="black"/>
<path d="M135.039 10.875L146.195 38.7187L157.352 10.875H163.188V45H158.688V31.7109L159.109 17.3672L147.906 45H144.461L133.281 17.4375L133.727 31.7109V45H129.227V10.875H135.039Z" fill="black"/>
<path d="M176.945 10.875L188.102 38.7187L199.258 10.875H205.094V45H200.594V31.7109L201.016 17.3672L189.812 45H186.367L175.188 17.4375L175.633 31.7109V45H171.133V10.875H176.945Z" fill="black"/>
<path d="M232.328 29.2266H217.539V41.3203H234.719V45H213.039V10.875H234.484V14.5781H217.539V25.5469H232.328V29.2266Z" fill="black"/>
<path d="M252.836 31.1953H244.82V45H240.297V10.875H251.594C255.438 10.875 258.391 11.75 260.453 13.5C262.531 15.25 263.57 17.7969 263.57 21.1406C263.57 23.2656 262.992 25.1172 261.836 26.6953C260.695 28.2734 259.102 29.4531 257.055 30.2344L265.07 44.7187V45H260.242L252.836 31.1953ZM244.82 27.5156H251.734C253.969 27.5156 255.742 26.9375 257.055 25.7812C258.383 24.625 259.047 23.0781 259.047 21.1406C259.047 19.0312 258.414 17.4141 257.148 16.2891C255.898 15.1641 254.086 14.5937 251.711 14.5781H244.82V27.5156Z" fill="black"/>
<path d="M295 34.1719C294.578 37.7812 293.242 40.5703 290.992 42.5391C288.758 44.4922 285.781 45.4687 282.062 45.4687C278.031 45.4687 274.797 44.0234 272.359 41.1328C269.938 38.2422 268.727 34.375 268.727 29.5312V26.25C268.727 23.0781 269.289 20.2891 270.414 17.8828C271.555 15.4766 273.164 13.6328 275.242 12.3516C277.32 11.0547 279.727 10.4062 282.461 10.4062C286.086 10.4062 288.992 11.4219 291.18 13.4531C293.367 15.4687 294.641 18.2656 295 21.8437H290.477C290.086 19.125 289.234 17.1562 287.922 15.9375C286.625 14.7187 284.805 14.1094 282.461 14.1094C279.586 14.1094 277.328 15.1719 275.688 17.2969C274.062 19.4219 273.25 22.4453 273.25 26.3672V29.6719C273.25 33.375 274.023 36.3203 275.57 38.5078C277.117 40.6953 279.281 41.7891 282.062 41.7891C284.562 41.7891 286.477 41.2266 287.805 40.1016C289.148 38.9609 290.039 36.9844 290.477 34.1719H295Z" fill="black"/>
<path d="M320.453 29.2266H305.664V41.3203H322.844V45H301.164V10.875H322.609V14.5781H305.664V25.5469H320.453V29.2266Z" fill="black"/>
</g>
<g id="blob 1">
<path id="Vector" d="M52.2118 9.06254C57.3582 13.8186 61.6614 18.8535 60.8878 23.419C60.1145 28.0185 54.2648 32.1824 50.9266 37.6191C47.5884 43.0558 46.7965 49.7308 43.1213 52.6865C39.4461 55.6421 32.9223 54.844 26.4958 52.9903C20.1042 51.1023 13.8098 48.1588 10.4941 43.252C7.17837 38.3451 6.80607 31.4753 8.73251 25.7097C10.6592 19.9782 14.8847 15.3509 19.6719 10.481C24.4945 5.64485 29.8434 0.53225 35.5127 0.214468C41.1817 -0.137336 47.1009 4.34027 52.2118 9.06254Z" fill="#A6A6A6"/>
<path id="E" d="M42.2541 29.2267L27.465 29.2308L27.4615 41.3245L44.6412 41.3198L44.6402 44.9995L22.9605 45.0055L22.9702 10.8805L44.4155 10.8746L44.4145 14.5777L27.4692 14.5824L27.466 25.5511L42.2551 25.547L42.2541 29.2267Z" fill="white"/>
</g>
</g>
<defs>
<clipPath id="clip0">
<rect width="334" height="57" fill="white"/>
</clipPath>
</defs>
</svg>
